<?xml version="1.0" encoding="UTF-8" standalone="no"?>
<!-- Created with Inkscape (http://www.inkscape.org/) -->

<svg
   xmlns:dc="http://purl.org/dc/elements/1.1/"
   xmlns:cc="http://creativecommons.org/ns#"
   xmlns:rdf="http://www.w3.org/1999/02/22-rdf-syntax-ns#"
   xmlns:svg="http://www.w3.org/2000/svg"
   xmlns="http://www.w3.org/2000/svg"
   xmlns:sodipodi="http://sodipodi.sourceforge.net/DTD/sodipodi-0.dtd"
   xmlns:inkscape="http://www.inkscape.org/namespaces/inkscape"
   width="744.09448819"
   height="1052.3622047"
   id="svg2"
   version="1.1"
   inkscape:version="0.48.2 r9819"
   sodipodi:docname="blob-3.svg">
  <defs
     id="defs4" />
  <sodipodi:namedview
     id="base"
     pagecolor="#ffffff"
     bordercolor="#666666"
     borderopacity="1.0"
     inkscape:pageopacity="0.0"
     inkscape:pageshadow="2"
     inkscape:zoom="7"
     inkscape:cx="344"
     inkscape:cy="510.5"
     inkscape:document-units="px"
     inkscape:current-layer="layer1"
     showgrid="true"
     inkscape:window-width="976"
     inkscape:window-height="631"
     inkscape:window-x="4"
     inkscape:window-y="0"
     inkscape:window-maximized="0">
    <inkscape:grid
       type="xygrid"
       id="grid2985" />
  </sodipodi:namedview>
  <metadata
     id="metadata7">
    <rdf:RDF>
      <cc:Work
         rdf:about="">
        <dc:format>image/svg+xml</dc:format>
        <dc:type
           rdf:resource="http://purl.org/dc/dcmitype/StillImage" />
        <dc:title />
      </cc:Work>
    </rdf:RDF>
  </metadata>
  <g
     inkscape:label="Layer 1"
     inkscape:groupmode="layer"
     id="layer1">
    <path
       sodipodi:type="arc"
       style="fill:#000000;fill-rule:evenodd;stroke:#000000;stroke-width:0.10000000000000001;stroke-linecap:butt;stroke-linejoin:miter;stroke-opacity:1;stroke-miterlimit:4;stroke-dasharray:none;fill-opacity:1"
       id="path2987"
       sodipodi:cx="345"
       sodipodi:cy="542.36218"
       sodipodi:rx="25"
       sodipodi:ry="25"
       d="m 370,542.36218 a 25,25 0 1 1 -50,0 25,25 0 1 1 50,0 z" />
    <path
       sodipodi:type="arc"
       style="fill:#000000;fill-rule:evenodd;stroke:#000000;stroke-width:0.1;stroke-linecap:butt;stroke-linejoin:miter;stroke-opacity:1;fill-opacity:1;stroke-miterlimit:4;stroke-dasharray:none"
       id="path2989"
       sodipodi:cx="332.5"
       sodipodi:cy="524.86218"
       sodipodi:rx="7.5"
       sodipodi:ry="7.5"
       d="m 340,524.86218 a 7.5,7.5 0 1 1 -15,0 7.5,7.5 0 1 1 15,0 z" />
    <path
       sodipodi:type="arc"
       style="fill:#000000;fill-opacity:1;stroke-width:0.1;stroke-miterlimit:4;stroke-dasharray:none"
       id="path3761"
       sodipodi:cx="345"
       sodipodi:cy="522.36218"
       sodipodi:rx="10"
       sodipodi:ry="10"
       d="m 355,522.36218 a 10,10 0 1 1 -20,0 10,10 0 1 1 20,0 z" />
    <path
       sodipodi:type="arc"
       style="fill:#000000;fill-opacity:1;stroke-width:0.1;stroke-miterlimit:4;stroke-dasharray:none"
       id="path3763"
       sodipodi:cx="365"
       sodipodi:cy="527.36218"
       sodipodi:rx="10"
       sodipodi:ry="10"
       d="m 375,527.36218 a 10,10 0 1 1 -20,0 10,10 0 1 1 20,0 z"
       transform="matrix(0.75,0,0,0.75,88.75,134.34055)" />
    <path
       sodipodi:type="arc"
       style="fill:#000000;fill-opacity:1;stroke-width:0.1;stroke-miterlimit:4;stroke-dasharray:none"
       id="path3767"
       sodipodi:cx="357.5"
       sodipodi:cy="520.86218"
       sodipodi:rx="5.5"
       sodipodi:ry="5.5"
       d="m 363,520.86218 a 5.5,5.5 0 1 1 -11,0 5.5,5.5 0 1 1 11,0 z" />
    <path
       sodipodi:type="arc"
       style="fill:#000000;fill-opacity:1;stroke-width:0.1;stroke-miterlimit:4;stroke-dasharray:none"
       id="path3769"
       sodipodi:cx="368.5"
       sodipodi:cy="537.86218"
       sodipodi:rx="5.5"
       sodipodi:ry="5.5"
       d="m 374,537.86218 a 5.5,5.5 0 1 1 -11,0 5.5,5.5 0 1 1 11,0 z" />
    <path
       sodipodi:type="arc"
       style="fill:#000000;fill-opacity:1;stroke-width:0.1;stroke-miterlimit:4;stroke-dasharray:none"
       id="path3771"
       sodipodi:cx="367.5"
       sodipodi:cy="549.86218"
       sodipodi:rx="6.5"
       sodipodi:ry="6.5"
       d="m 374,549.86218 a 6.5,6.5 0 1 1 -13,0 6.5,6.5 0 1 1 13,0 z" />
    <path
       sodipodi:type="arc"
       style="fill:#000000;fill-opacity:1;stroke-width:0.1;stroke-miterlimit:4;stroke-dasharray:none"
       id="path3773"
       sodipodi:cx="369.5"
       sodipodi:cy="542.86218"
       sodipodi:rx="3.5"
       sodipodi:ry="3.5"
       d="m 373,542.86218 a 3.5,3.5 0 1 1 -7,0 3.5,3.5 0 1 1 7,0 z" />
    <path
       sodipodi:type="arc"
       style="fill:#000000;fill-opacity:1;stroke-width:0.1;stroke-miterlimit:4;stroke-dasharray:none"
       id="path3775"
       sodipodi:cx="359"
       sodipodi:cy="560.36218"
       sodipodi:rx="5"
       sodipodi:ry="5"
       d="m 364,560.36218 a 5,5 0 1 1 -10,0 5,5 0 1 1 10,0 z"
       transform="matrix(1.2,0,0,1.2,-70.8,-111.07244)" />
    <path
       sodipodi:type="arc"
       style="fill:#000000;fill-opacity:1;stroke-width:0.1;stroke-miterlimit:4;stroke-dasharray:none"
       id="path3777"
       sodipodi:cx="358"
       sodipodi:cy="552.36218"
       sodipodi:rx="12"
       sodipodi:ry="10"
       d="m 370,552.36218 a 12,10 0 1 1 -24,0 12,10 0 1 1 24,0 z" />
    <path
       sodipodi:type="arc"
       style="fill:#000000;fill-opacity:1;stroke-width:0.1;stroke-miterlimit:4;stroke-dasharray:none"
       id="path3779"
       sodipodi:cx="346"
       sodipodi:cy="559.36218"
       sodipodi:rx="15"
       sodipodi:ry="12"
       d="m 361,559.36218 a 15,12 0 1 1 -30,0 15,12 0 1 1 30,0 z" />
    <path
       sodipodi:type="arc"
       style="fill:#000000;fill-opacity:1;stroke-width:0.1;stroke-miterlimit:4;stroke-dasharray:none"
       id="path3789"
       sodipodi:cx="330"
       sodipodi:cy="562.36218"
       sodipodi:rx="5"
       sodipodi:ry="5"
       d="m 335,562.36218 a 5,5 0 1 1 -10,0 5,5 0 1 1 10,0 z" />
    <path
       sodipodi:type="arc"
       style="fill:#000000;fill-opacity:1;stroke-width:0.1;stroke-miterlimit:4;stroke-dasharray:none"
       id="path3791"
       sodipodi:cx="324"
       sodipodi:cy="554.36218"
       sodipodi:rx="6"
       sodipodi:ry="6"
       d="m 330,554.36218 a 6,6 0 1 1 -12,0 6,6 0 1 1 12,0 z" />
    <path
       sodipodi:type="arc"
       style="fill:#000000;fill-opacity:1;stroke-width:0.1;stroke-miterlimit:4;stroke-dasharray:none"
       id="path3793"
       sodipodi:cx="320"
       sodipodi:cy="547.36218"
       sodipodi:rx="4"
       sodipodi:ry="4"
       d="m 324,547.36218 a 4,4 0 1 1 -8,0 4,4 0 1 1 8,0 z" />
    <path
       sodipodi:type="arc"
       style="fill:#000000;fill-opacity:1;stroke-width:0.1;stroke-miterlimit:4;stroke-dasharray:none"
       id="path3795"
       sodipodi:cx="319"
       sodipodi:cy="538.36218"
       sodipodi:rx="5"
       sodipodi:ry="5"
       d="m 324,538.36218 a 5,5 0 1 1 -10,0 5,5 0 1 1 10,0 z" />
    <path
       sodipodi:type="arc"
       style="fill:#000000;fill-opacity:1;stroke-width:0.1;stroke-miterlimit:4;stroke-dasharray:none"
       id="path3797"
       sodipodi:cx="323"
       sodipodi:cy="529.36218"
       sodipodi:rx="8"
       sodipodi:ry="8"
       d="m 331,529.36218 a 8,8 0 1 1 -16,0 8,8 0 1 1 16,0 z"
       transform="matrix(0.9375,0,0,0.9375,20.6875,33.585136)" />
    <path
       sodipodi:type="arc"
       style="fill:#000000;fill-opacity:1;stroke-width:0.1;stroke-miterlimit:4;stroke-dasharray:none"
       id="path3799"
       sodipodi:cx="321"
       sodipodi:cy="543.36218"
       sodipodi:rx="4.3262382"
       sodipodi:ry="7"
       d="m 325.32624,543.36218 a 4.3262382,7 0 1 1 -8.65248,0 4.3262382,7 0 1 1 8.65248,0 z" />
  </g>
</svg>
